<?xml version="1.0" standalone="no"?>
<!DOCTYPE svg PUBLIC "-//W3C//DTD SVG 20010904//EN"
 "http://www.w3.org/TR/2001/REC-SVG-20010904/DTD/svg10.dtd">
<svg version="1.0" xmlns="http://www.w3.org/2000/svg"
 width="240.000000pt" height="240.000000pt" viewBox="0 0 240.000000 240.000000"
 preserveAspectRatio="xMidYMid meet">
<metadata>
Created by potrace 1.14, written by Peter Selinger 2001-2017
</metadata>
<g transform="translate(0.000000,240.000000) scale(0.100000,-0.100000)"
fill="#000000" stroke="none">
<path d="M0 2090 c0 -200 4 -310 10 -310 6 0 10 4 10 9 0 6 12 6 28 2 15 -5
51 -6 79 -4 46 5 52 3 58 -17 9 -30 -19 -101 -51 -129 -25 -22 -27 -22 -67 -6
-23 10 -48 19 -55 22 -9 4 -12 -165 -12 -826 l0 -831 1200 0 1200 0 0 1200 0
1200 -172 0 c-157 -1 -171 -2 -146 -15 15 -8 29 -24 33 -35 3 -11 13 -20 20
-20 24 0 5 -71 -27 -104 -15 -17 -28 -36 -28 -43 0 -7 -4 -13 -8 -13 -4 0 -8
-8 -9 -17 -6 -99 -35 -214 -50 -199 -4 3 -12 1 -19 -5 -27 -22 -68 0 -103 55
-40 64 -62 76 -130 72 -64 -5 -76 9 -122 147 -7 20 -16 37 -21 37 -9 0 -29 73
-30 112 l-1 29 -331 -3 c-331 -3 -355 -4 -368 -23 -4 -5 -10 -2 -14 8 -6 16
-39 17 -440 17 l-434 0 0 -310z m707 248 c-3 -8 -6 -5 -6 6 -1 11 2 17 5 13 3
-3 4 -12 1 -19z m116 6 c3 -3 -12 -25 -34 -47 -26 -28 -39 -50 -39 -69 0 -27
-1 -27 -18 -10 -10 10 -18 30 -17 49 0 17 -3 29 -7 27 -15 -9 -8 16 9 36 12
14 30 20 59 20 22 0 43 -3 47 -6z m407 -423 c0 -5 -7 -12 -16 -15 -14 -5 -15
-4 -4 9 14 17 20 19 20 6z m-320 -106 c8 -36 7 -38 -6 -21 -8 11 -13 38 -13
60 1 41 3 37 19 -39z m345 5 c3 -5 2 -10 -4 -10 -5 0 -13 5 -16 10 -3 6 -2 10
4 10 5 0 13 -4 16 -10z m814 -497 c0 -27 -6 -93 -14 -148 l-14 -100 4 85 c3
47 5 113 5 148 0 34 4 62 10 62 6 0 10 -21 9 -47z m-32 -290 c-3 -10 -5 -4 -5
12 0 17 2 24 5 18 2 -7 2 -21 0 -30z m-50 -225 c-3 -8 -6 -5 -6 6 -1 11 2 17
5 13 3 -3 4 -12 1 -19z"/>
</g>
</svg>
